<svg width="37" height="36" viewBox="0 0 37 36" fill="none" xmlns="http://www.w3.org/2000/svg">
<path d="M9.78948 26.2445C9.78948 27.0496 10.4556 27.7067 11.2752 27.7067H12.9737V31.849C12.9737 32.8984 13.8281 33.7551 14.8779 33.7551C15.9311 33.7551 16.7821 32.9018 16.7821 31.849V27.7033H19.7466V31.8456C19.7466 32.8949 20.601 33.7516 21.6508 33.7516C22.704 33.7516 23.555 32.8984 23.555 31.8456V27.7033H25.2535C26.0731 27.7033 26.7392 27.0461 26.7392 26.2411V12.6444H9.78948V26.2445ZM22.2437 5.5983L23.8096 3.36199C23.9003 3.23126 23.8794 3.05579 23.7573 2.96978C23.6352 2.88721 23.4608 2.9285 23.3702 3.05923L21.7449 5.38499C20.6743 4.96869 19.4815 4.73818 18.2295 4.73818C16.9774 4.73818 15.7847 4.96869 14.714 5.38499L13.0887 3.06267C12.9981 2.93194 12.8237 2.88721 12.7016 2.97322C12.5796 3.05579 12.5586 3.22782 12.6493 3.36543L14.2152 5.60174C11.7251 6.74397 9.9813 8.90802 9.75809 11.4368H26.7078C26.4776 8.90458 24.7303 6.74053 22.2437 5.5983ZM14.6512 9.12477C14.4656 9.12477 14.2842 9.07049 14.13 8.9688C13.9757 8.86711 13.8554 8.72256 13.7844 8.55345C13.7134 8.38434 13.6948 8.19826 13.731 8.01873C13.7672 7.83921 13.8566 7.6743 13.9878 7.54487C14.119 7.41544 14.2862 7.32729 14.4682 7.29158C14.6501 7.25588 14.8388 7.2742 15.0102 7.34425C15.1816 7.4143 15.3282 7.53292 15.4312 7.68511C15.5343 7.83731 15.5893 8.01624 15.5893 8.19929C15.5887 8.44454 15.4897 8.67958 15.3139 8.853C15.1381 9.02643 14.8998 9.12414 14.6512 9.12477ZM21.9193 9.12477C21.7338 9.12477 21.5524 9.07049 21.3981 8.9688C21.2438 8.86711 21.1236 8.72256 21.0526 8.55345C20.9816 8.38434 20.963 8.19826 20.9992 8.01873C21.0354 7.83921 21.1247 7.6743 21.2559 7.54487C21.3872 7.41544 21.5543 7.32729 21.7363 7.29158C21.9183 7.25588 22.1069 7.2742 22.2783 7.34425C22.4498 7.4143 22.5963 7.53292 22.6994 7.68511C22.8025 7.83731 22.8575 8.01624 22.8575 8.19929C22.8568 8.44454 22.7578 8.67958 22.582 8.853C22.4062 9.02643 22.1679 9.12414 21.9193 9.12477ZM29.7106 12.5893C28.6574 12.5893 27.8064 13.4426 27.8064 14.4953V21.9405C27.8064 22.9898 28.6608 23.8465 29.7106 23.8465C30.7639 23.8465 31.6148 22.9933 31.6148 21.9405V14.4919C31.6183 13.4391 30.7673 12.5893 29.7106 12.5893ZM6.74132 12.5893C5.68807 12.5893 4.8371 13.4426 4.8371 14.4953V21.9405C4.8371 22.9898 5.69156 23.8465 6.74132 23.8465C7.79458 23.8465 8.64555 22.9933 8.64555 21.9405V14.4919C8.64555 13.4391 7.79109 12.5893 6.74132 12.5893Z" fill="white"/>
</svg>
