<svg width="33" height="34" viewBox="0 0 33 34" fill="none" xmlns="http://www.w3.org/2000/svg">
<path d="M23.9922 18.1013C23.9793 15.9157 24.9696 14.2684 26.9694 13.0538C25.851 11.4513 24.1588 10.57 21.9283 10.4002C19.8163 10.2335 17.5056 11.6308 16.6595 11.6308C15.7654 11.6308 13.7207 10.4579 12.1119 10.4579C8.79172 10.5091 5.26321 13.105 5.26321 18.3866C5.26321 19.9473 5.54844 21.5593 6.1189 23.2194C6.88165 25.4051 9.63138 30.7604 12.4997 30.6738C13.9995 30.6386 15.0603 29.6098 17.0121 29.6098C18.9061 29.6098 19.8868 30.6738 21.5597 30.6738C24.4537 30.6322 26.9406 25.7641 27.6649 23.572C23.7838 21.742 23.9922 18.2135 23.9922 18.1013ZM20.6239 8.32665C22.2487 6.39735 22.1013 4.64111 22.0532 4.00977C20.6175 4.09309 18.9574 4.98723 18.012 6.08649C16.9704 7.26586 16.3583 8.72405 16.4897 10.3681C18.0408 10.4867 19.4573 9.6887 20.6239 8.32665Z" fill="white"/>
</svg>
