<svg width="15" height="19" viewBox="0 0 15 19" fill="none" xmlns="http://www.w3.org/2000/svg">
<path d="M12.0765 7.2602H10.4313V2.01641C10.4313 1.43959 9.96569 0.967651 9.3966 0.967651H5.25776C4.68867 0.967651 4.22304 1.43959 4.22304 2.01641V7.2602H2.57785C1.65696 7.2602 1.19134 8.39286 1.84321 9.05357L6.59253 13.8674C6.99607 14.2764 7.64794 14.2764 8.05148 13.8674L12.8008 9.05357C13.4527 8.39286 12.9974 7.2602 12.0765 7.2602ZM0.084198 17.7478C0.084198 18.3246 0.549818 18.7965 1.11891 18.7965H13.5355C14.1045 18.7965 14.5702 18.3246 14.5702 17.7478C14.5702 17.171 14.1045 16.699 13.5355 16.699H1.11891C0.549818 16.699 0.084198 17.171 0.084198 17.7478Z" fill="white"/>
</svg>
