<svg width="18" height="10" viewBox="0 0 18 10" fill="none" xmlns="http://www.w3.org/2000/svg">
<path d="M8.66549 9.98434C8.38472 9.98494 8.11262 9.87878 7.89643 9.68428L0.686482 3.16125C0.441083 2.93981 0.286761 2.6216 0.257465 2.27663C0.228169 1.93166 0.326299 1.58818 0.530266 1.32176C0.734234 1.05533 1.02733 0.88779 1.34508 0.855984C1.66283 0.824178 1.97921 0.930714 2.2246 1.15216L8.66549 6.99679L15.1064 1.36089C15.2293 1.25253 15.3707 1.1716 15.5225 1.12277C15.6744 1.07393 15.8336 1.05815 15.991 1.07634C16.1485 1.09452 16.3011 1.14631 16.44 1.22873C16.579 1.31115 16.7015 1.42257 16.8007 1.55658C16.9108 1.69073 16.9941 1.8481 17.0455 2.01883C17.097 2.18957 17.1153 2.37 17.0995 2.54882C17.0838 2.72763 17.0341 2.90097 16.9537 3.05799C16.8734 3.21501 16.764 3.35232 16.6325 3.46131L9.42253 9.76256C9.20013 9.92631 8.93358 10.0044 8.66549 9.98434Z" fill="#171B33"/>
</svg>
