<svg width="20" height="20" viewBox="0 0 20 20" fill="none" xmlns="http://www.w3.org/2000/svg">
<path fill-rule="evenodd" clip-rule="evenodd" d="M3.54814 0.600776C2.84861 -0.0487796 1.75497 -0.00827442 1.10541 0.691247C0.455859 1.39077 0.496364 2.48441 1.19589 3.13397C2.97521 4.78619 5.33063 6.99779 7.66625 9.23143C7.36114 9.528 7.06039 9.82138 6.76549 10.1102C5.12378 11.7182 3.64644 13.2022 2.60236 14.3215C2.08595 14.8751 1.64458 15.3723 1.33864 15.7648C1.19423 15.95 1.0278 16.1775 0.902788 16.4106C0.846399 16.5157 0.738989 16.729 0.682447 17.0025C0.639093 17.2122 0.518333 17.9998 1.16409 18.6456C1.8391 19.3206 2.93349 19.3206 3.60849 18.6456C3.81843 18.4357 3.96307 18.1852 4.04242 17.9193L4.06501 17.8901C4.2737 17.6224 4.62994 17.2158 5.13019 16.6795C6.11944 15.619 7.55166 14.1791 9.1844 12.5798C9.50232 12.2684 9.82721 11.9516 10.1572 11.6311C10.4871 11.9516 10.812 12.2684 11.1299 12.5798C12.7627 14.1791 14.1949 15.619 15.1841 16.6795C15.6844 17.2158 16.0406 17.6224 16.2493 17.8901L16.2719 17.9193C16.3513 18.1852 16.4959 18.4357 16.7059 18.6456C17.3809 19.3206 18.4752 19.3206 19.1502 18.6456C19.796 17.9998 19.6752 17.2122 19.6319 17.0025C19.5754 16.729 19.4679 16.5157 19.4116 16.4106C19.2865 16.1775 19.1201 15.95 18.9757 15.7648C18.6698 15.3723 18.2284 14.8751 17.712 14.3215C16.6679 13.2022 15.1906 11.7182 13.5489 10.1102C13.254 9.82138 12.9532 9.528 12.6481 9.23143C14.9837 6.99779 17.3391 4.78619 19.1185 3.13397C19.818 2.48441 19.8585 1.39077 19.2089 0.691247C18.5594 -0.00827442 17.4657 -0.0487796 16.7662 0.600776C14.9534 2.28411 12.5425 4.54796 10.1572 6.83036C7.77184 4.54796 5.36095 2.28411 3.54814 0.600776ZM16.7059 16.2012C16.5784 16.3286 16.4751 16.471 16.3957 16.6227C16.4685 16.4814 16.5688 16.3383 16.7059 16.2012ZM3.60849 16.2012C3.73591 16.3286 3.83928 16.471 3.9186 16.6227C3.84582 16.4814 3.74553 16.3383 3.60849 16.2012Z" fill="white"/>
</svg>
