<svg width="29" height="28" viewBox="0 0 29 28" fill="none" xmlns="http://www.w3.org/2000/svg">
<g clip-path="url(#clip0_1_314)">
<path d="M14.3858 1.49878C8.85329 1.49878 4.12941 5.07361 2.38455 10.0103H26.4721C24.6847 5.07361 19.9608 1.49878 14.3858 1.49878Z" fill="#F2B200"/>
<path d="M14.3858 27.0332C19.9608 27.0332 24.6847 23.501 26.4295 18.5217H2.38455C4.12941 23.501 8.85329 27.0332 14.3858 27.0332Z" fill="#83BF4F"/>
<path d="M2.38441 10.0103C1.91628 11.3295 1.66093 12.7765 1.66093 14.266C1.66093 15.7555 1.91628 17.2025 2.38441 18.5218H26.472C26.9401 17.2025 27.1954 15.7555 27.1954 14.266C27.1954 12.7765 26.9401 11.3295 26.472 10.0103H2.38441Z" fill="#F0F0F0"/>
<path d="M14.3856 17.6705C16.2659 17.6705 17.7902 16.1462 17.7902 14.2659C17.7902 12.3856 16.2659 10.8613 14.3856 10.8613C12.5053 10.8613 10.981 12.3856 10.981 14.2659C10.981 16.1462 12.5053 17.6705 14.3856 17.6705Z" fill="#428BC1"/>
<path d="M14.3856 17.245C16.0309 17.245 17.3647 15.9113 17.3647 14.266C17.3647 12.6207 16.0309 11.287 14.3856 11.287C12.7404 11.287 11.4066 12.6207 11.4066 14.266C11.4066 15.9113 12.7404 17.245 14.3856 17.245Z" fill="#F0F0F0"/>
<path d="M13.2792 11.7126C13.3967 11.7126 13.492 11.6173 13.492 11.4998C13.492 11.3823 13.3967 11.287 13.2792 11.287C13.1616 11.287 13.0664 11.3823 13.0664 11.4998C13.0664 11.6173 13.1616 11.7126 13.2792 11.7126Z" fill="#428BC1"/>
<path d="M12.5983 12.0956C12.7158 12.0956 12.8111 12.0004 12.8111 11.8828C12.8111 11.7653 12.7158 11.67 12.5983 11.67C12.4808 11.67 12.3855 11.7653 12.3855 11.8828C12.3855 12.0004 12.4808 12.0956 12.5983 12.0956Z" fill="#428BC1"/>
<path d="M12.045 12.6488C12.1626 12.6488 12.2578 12.5536 12.2578 12.4361C12.2578 12.3185 12.1626 12.2233 12.045 12.2233C11.9275 12.2233 11.8323 12.3185 11.8323 12.4361C11.8323 12.5536 11.9275 12.6488 12.045 12.6488Z" fill="#428BC1"/>
<path d="M11.6622 13.3297C11.7797 13.3297 11.875 13.2345 11.875 13.117C11.875 12.9994 11.7797 12.9042 11.6622 12.9042C11.5446 12.9042 11.4494 12.9994 11.4494 13.117C11.4494 13.2345 11.5446 13.3297 11.6622 13.3297Z" fill="#428BC1"/>
<path d="M11.4494 14.0957C11.5669 14.0957 11.6621 14.0005 11.6621 13.883C11.6621 13.7654 11.5669 13.6702 11.4494 13.6702C11.3318 13.6702 11.2366 13.7654 11.2366 13.883C11.2366 14.0005 11.3318 14.0957 11.4494 14.0957Z" fill="#428BC1"/>
<path d="M11.4494 14.8619C11.5669 14.8619 11.6621 14.7666 11.6621 14.6491C11.6621 14.5315 11.5669 14.4363 11.4494 14.4363C11.3318 14.4363 11.2366 14.5315 11.2366 14.6491C11.2366 14.7666 11.3318 14.8619 11.4494 14.8619Z" fill="#428BC1"/>
<path d="M11.6622 15.6278C11.7797 15.6278 11.875 15.5326 11.875 15.4151C11.875 15.2975 11.7797 15.2023 11.6622 15.2023C11.5446 15.2023 11.4494 15.2975 11.4494 15.4151C11.4494 15.5326 11.5446 15.6278 11.6622 15.6278Z" fill="#428BC1"/>
<path d="M12.045 16.3088C12.1626 16.3088 12.2578 16.2135 12.2578 16.096C12.2578 15.9784 12.1626 15.8832 12.045 15.8832C11.9275 15.8832 11.8323 15.9784 11.8323 16.096C11.8323 16.2135 11.9275 16.3088 12.045 16.3088Z" fill="#428BC1"/>
<path d="M12.5983 16.8621C12.7158 16.8621 12.8111 16.7668 12.8111 16.6493C12.8111 16.5318 12.7158 16.4365 12.5983 16.4365C12.4808 16.4365 12.3855 16.5318 12.3855 16.6493C12.3855 16.7668 12.4808 16.8621 12.5983 16.8621Z" fill="#428BC1"/>
<path d="M13.2792 17.245C13.3967 17.245 13.492 17.1498 13.492 17.0322C13.492 16.9147 13.3967 16.8195 13.2792 16.8195C13.1616 16.8195 13.0664 16.9147 13.0664 17.0322C13.0664 17.1498 13.1616 17.245 13.2792 17.245Z" fill="#428BC1"/>
<path d="M14.0028 17.4153C14.1203 17.4153 14.2156 17.3201 14.2156 17.2025C14.2156 17.085 14.1203 16.9897 14.0028 16.9897C13.8853 16.9897 13.79 17.085 13.79 17.2025C13.79 17.3201 13.8853 17.4153 14.0028 17.4153Z" fill="#428BC1"/>
<path d="M14.5985 17.2451C14.5985 17.1174 14.6836 17.0323 14.7687 16.9897C14.8964 16.9897 14.9815 17.0749 15.0241 17.16C15.0241 17.2876 14.939 17.3728 14.8538 17.4153C14.6836 17.4579 14.5985 17.3728 14.5985 17.2451Z" fill="#428BC1"/>
<path d="M15.5349 17.245C15.6524 17.245 15.7477 17.1498 15.7477 17.0322C15.7477 16.9147 15.6524 16.8195 15.5349 16.8195C15.4174 16.8195 15.3221 16.9147 15.3221 17.0322C15.3221 17.1498 15.4174 17.245 15.5349 17.245Z" fill="#428BC1"/>
<path d="M16.2158 16.8621C16.3333 16.8621 16.4286 16.7668 16.4286 16.6493C16.4286 16.5318 16.3333 16.4365 16.2158 16.4365C16.0983 16.4365 16.003 16.5318 16.003 16.6493C16.003 16.7668 16.0983 16.8621 16.2158 16.8621Z" fill="#428BC1"/>
<path d="M16.769 16.3088C16.8866 16.3088 16.9818 16.2135 16.9818 16.096C16.9818 15.9784 16.8866 15.8832 16.769 15.8832C16.6515 15.8832 16.5562 15.9784 16.5562 16.096C16.5562 16.2135 16.6515 16.3088 16.769 16.3088Z" fill="#428BC1"/>
<path d="M17.1519 15.6278C17.2694 15.6278 17.3647 15.5326 17.3647 15.4151C17.3647 15.2975 17.2694 15.2023 17.1519 15.2023C17.0344 15.2023 16.9391 15.2975 16.9391 15.4151C16.9391 15.5326 17.0344 15.6278 17.1519 15.6278Z" fill="#428BC1"/>
<path d="M17.3647 14.8619C17.4822 14.8619 17.5775 14.7666 17.5775 14.6491C17.5775 14.5315 17.4822 14.4363 17.3647 14.4363C17.2472 14.4363 17.1519 14.5315 17.1519 14.6491C17.1519 14.7666 17.2472 14.8619 17.3647 14.8619Z" fill="#428BC1"/>
<path d="M17.3648 14.0957C17.2372 14.0957 17.1521 14.0106 17.1095 13.9255C17.1095 13.7978 17.1946 13.7127 17.2797 13.6702C17.4074 13.6702 17.4925 13.7553 17.5351 13.8404C17.5776 13.9681 17.4925 14.0532 17.3648 14.0957Z" fill="#428BC1"/>
<path d="M17.1519 13.3297C17.2694 13.3297 17.3647 13.2345 17.3647 13.117C17.3647 12.9994 17.2694 12.9042 17.1519 12.9042C17.0344 12.9042 16.9391 12.9994 16.9391 13.117C16.9391 13.2345 17.0344 13.3297 17.1519 13.3297Z" fill="#428BC1"/>
<path d="M16.769 12.6488C16.8866 12.6488 16.9818 12.5536 16.9818 12.4361C16.9818 12.3185 16.8866 12.2233 16.769 12.2233C16.6515 12.2233 16.5562 12.3185 16.5562 12.4361C16.5562 12.5536 16.6515 12.6488 16.769 12.6488Z" fill="#428BC1"/>
<path d="M16.2158 12.0956C16.3333 12.0956 16.4286 12.0004 16.4286 11.8828C16.4286 11.7653 16.3333 11.67 16.2158 11.67C16.0983 11.67 16.003 11.7653 16.003 11.8828C16.003 12.0004 16.0983 12.0956 16.2158 12.0956Z" fill="#428BC1"/>
<path d="M15.7476 11.5849C15.7051 11.7125 15.5774 11.7551 15.4497 11.7125C15.3221 11.67 15.2795 11.5423 15.3221 11.4146C15.3646 11.287 15.4923 11.2444 15.62 11.287C15.7476 11.3721 15.7902 11.4998 15.7476 11.5849ZM14.9816 11.3295C14.9816 11.4572 14.8539 11.5423 14.7263 11.4998C14.5986 11.4998 14.5135 11.3721 14.556 11.2444C14.556 11.1167 14.6837 11.0316 14.8114 11.0742C14.939 11.1167 15.0242 11.2444 14.9816 11.3295ZM14.2156 11.287C14.2156 11.4146 14.1305 11.4998 14.0453 11.5423C13.9177 11.5423 13.8326 11.4572 13.79 11.3721C13.79 11.2444 13.8751 11.1593 13.9602 11.1167C14.0879 11.0742 14.2156 11.1593 14.2156 11.287Z" fill="#428BC1"/>
<path d="M14.3859 14.9044C14.7385 14.9044 15.0243 14.6186 15.0243 14.266C15.0243 13.9135 14.7385 13.6277 14.3859 13.6277C14.0334 13.6277 13.7476 13.9135 13.7476 14.266C13.7476 14.6186 14.0334 14.9044 14.3859 14.9044Z" fill="#428BC1"/>
<path d="M14.3857 11.287L14.3005 13.117L14.3857 14.266L14.5133 13.117L14.3857 11.287ZM13.6196 11.3721L14.0026 13.2021L14.3857 14.266L14.2154 13.117L13.6196 11.3721Z" fill="#428BC1"/>
<path d="M12.8964 11.67L13.7476 13.3298L14.3859 14.2661L13.9178 13.2021L12.8964 11.67ZM12.3006 12.1382L13.5348 13.5426L14.3859 14.2661L13.6625 13.3723L12.3006 12.1382Z" fill="#428BC1"/>
<path d="M11.8323 12.7765L13.3643 13.7979L14.3857 14.266L13.4494 13.5851L11.8323 12.7765Z" fill="#428BC1"/>
<path d="M11.5346 13.5L13.2795 14.0532L14.386 14.266L13.322 13.883L11.5346 13.5ZM11.4069 14.266L13.2795 14.3512L14.386 14.266L13.2795 14.1809L11.4069 14.266Z" fill="#428BC1"/>
<path d="M11.5346 15.032L13.322 14.649L14.3859 14.266L13.2794 14.4788L11.5346 15.032ZM11.8325 15.7555L13.4496 14.9469L14.3859 14.266L13.3645 14.7341L11.8325 15.7555Z" fill="#428BC1"/>
<path d="M12.3006 16.3513L13.6625 15.1597L14.3859 14.266L13.5348 14.9895L12.3006 16.3513ZM12.8964 16.862L13.9178 15.2874L14.3859 14.266L13.7476 15.2023L12.8964 16.862Z" fill="#428BC1"/>
<path d="M13.6196 17.1599L14.2154 15.415L14.3857 14.266L14.0026 15.3299L13.6196 17.1599ZM14.3857 17.245L14.5133 15.415L14.3857 14.266L14.3005 15.415L14.3857 17.245ZM15.1517 17.1599L14.8112 15.3299L14.3857 14.266L14.5984 15.415L15.1517 17.1599Z" fill="#428BC1"/>
<path d="M15.8752 16.862L15.0666 15.2023L14.3857 14.266L14.8964 15.3299L15.8752 16.862ZM16.5136 16.3513L15.2794 14.9895L14.3857 14.266L15.1517 15.1597L16.5136 16.3513Z" fill="#428BC1"/>
<path d="M16.9817 15.7555L15.4496 14.7342L14.3857 14.266L15.322 14.947L16.9817 15.7555ZM17.2796 15.0321L15.5347 14.4788L14.3857 14.266L15.4922 14.6491L17.2796 15.0321ZM17.3647 14.266L15.5347 14.1384L14.3857 14.266L15.5347 14.3512L17.3647 14.266ZM17.2796 13.5L15.4922 13.883L14.3857 14.266L15.5347 14.0532L17.2796 13.5Z" fill="#428BC1"/>
<path d="M16.9817 12.7765L15.322 13.5851L14.3857 14.266L15.4496 13.7978L16.9817 12.7765ZM16.5136 12.1807L15.1517 13.3723L14.3857 14.266L15.2794 13.5425L16.5136 12.1807Z" fill="#428BC1"/>
<path d="M15.8752 11.67L14.8964 13.2447L14.3857 14.2661L15.0666 13.3298L15.8752 11.67Z" fill="#428BC1"/>
<path d="M15.1943 11.3721L14.5985 13.1169L14.3857 14.266L14.8113 13.202L15.1943 11.3721Z" fill="#428BC1"/>
</g>
<defs>
<clipPath id="clip0_1_314">
<rect width="27.2368" height="27.2368" fill="white" transform="translate(0.852486 0.647583)"/>
</clipPath>
</defs>
</svg>
