<svg width="33" height="37" viewBox="0 0 33 37" fill="none" xmlns="http://www.w3.org/2000/svg">
<g clip-path="url(#clip0_1_95)">
<path d="M11.9684 31.8338L16.511 27.2897V29.5617C18.7593 29.562 20.9573 28.8952 22.8265 27.6458C24.6957 26.3963 26.1522 24.6203 27.0116 22.5427C27.8709 20.465 28.0946 18.1791 27.6541 15.9743C27.2137 13.7695 26.129 11.7449 24.5374 10.1569L27.7395 6.93967C29.2244 8.41543 30.4022 10.1707 31.205 12.1042C32.0078 14.0376 32.4197 16.111 32.4169 18.2045C32.4169 26.9867 25.2978 34.1058 16.5155 34.1058H16.5125V36.3779L11.9684 31.8338ZM0.608128 18.2015C0.618731 9.42226 7.73328 2.30771 16.511 2.29711H16.5125V0.0250549L21.0566 4.56916L16.5125 9.11326V6.84121H16.5095C14.2611 6.84134 12.0633 7.50845 10.1942 8.75811C8.32517 10.0078 6.86882 11.7838 6.00951 13.8615C5.15019 15.9392 4.92654 18.225 5.36685 20.4299C5.80716 22.6347 6.89165 24.6593 8.48306 26.2476L5.28401 29.4648C3.79994 27.9978 2.6222 26.2506 1.81923 24.3246C1.01626 22.3985 0.604072 20.3321 0.606613 18.2454V18.2V18.203L0.608128 18.2015Z" fill="white"/>
</g>
<defs>
<clipPath id="clip0_1_95">
<rect width="31.8087" height="36.3528" fill="white" transform="translate(0.607819 0.0250549)"/>
</clipPath>
</defs>
</svg>
