<svg width="16" height="13" viewBox="0 0 16 13" fill="none" xmlns="http://www.w3.org/2000/svg">
<path d="M0.655762 0.827637H15.588V12.0776H0.655762V0.827637Z" fill="#000066"/>
<path d="M0.655762 0.827637V1.48389L7.81858 6.68701H8.72151V6.03076L1.5587 0.827637H0.655762ZM8.72151 0.827637V1.48389L1.5587 6.68701H0.655762V6.03076L7.81858 0.827637H8.72151Z" fill="white"/>
<path d="M4.01552 0.827637V6.68701H5.35942V0.827637H4.01552ZM0.655762 2.77998V4.73467H8.72151V2.77998H0.655762Z" fill="white"/>
<path d="M0.655762 3.17139V4.34326H8.72151V3.17139H0.655762ZM4.28616 0.827637V6.68701H5.08877V0.827637H4.28383H4.28616ZM0.655762 6.68701L3.34357 4.73467H3.94552L1.25772 6.68701H0.655762ZM0.655762 0.827637L3.34357 2.77998H2.74394L0.655762 1.26357V0.827637ZM5.43175 2.77998L8.11955 0.827637H8.72151L6.0337 2.77998H5.43175ZM8.72151 6.68701L6.0337 4.73467H6.63333L8.72151 6.25108V6.68701Z" fill="#CC0000"/>
<path fill-rule="evenodd" clip-rule="evenodd" d="M7.65083 10.0268L6.63124 10.1159L6.77123 11.1331L6.06895 10.3901L5.36666 11.1331L5.50665 10.1159L4.48706 10.0268L5.36666 9.50415L4.7997 8.64868L5.7563 9.01197L6.06895 8.03462L6.38392 9.01197L7.34052 8.64868L6.77356 9.50415L7.65083 10.0268ZM12.0092 10.9643L11.7619 10.594L12.1772 10.751L12.3125 10.3268L12.4478 10.751L12.8631 10.594L12.6181 10.9643L13.0008 11.1917L12.5575 11.2315L12.6181 11.6745L12.3148 11.3487L12.0068 11.6745L12.0675 11.2315L11.6242 11.194L12.0092 10.9643ZM12.0068 4.35259L11.7619 3.98228L12.1772 4.13931L12.3125 3.71509L12.4478 4.13931L12.8631 3.98228L12.6181 4.35259L13.0008 4.58228L12.5575 4.61978L12.6181 5.06274L12.3148 4.73931L12.0068 5.0604L12.0675 4.61978L11.6242 4.58228L12.0068 4.35259ZM9.54069 7.03853L9.29571 6.66821L9.71101 6.82525L9.84634 6.40103L9.98399 6.82525L10.3993 6.66821L10.152 7.03853L10.5346 7.26587L10.0913 7.30571L10.1543 7.74868L9.84634 7.4229L9.54303 7.74868L9.60135 7.30571L9.15805 7.26821L9.54069 7.03853ZM14.2047 6.37759L13.955 6.00728L14.3703 6.16431L14.5057 5.74009L14.6433 6.16431L15.0586 6.00728L14.8136 6.37759L15.1939 6.60493L14.7506 6.64478L14.8113 7.0854L14.508 6.76196L14.2 7.0854L14.2607 6.64478L13.8174 6.60493L14.2047 6.37759ZM13.3018 8.32759L13.0614 8.47993L13.1291 8.20103L12.9121 8.01821L13.1944 7.99478L13.3018 7.73228L13.4114 7.99712L13.6937 8.01821L13.4767 8.20103L13.5444 8.47993" fill="white"/>
</svg>
