<svg width="26" height="26" viewBox="0 0 26 26" fill="none" xmlns="http://www.w3.org/2000/svg">
<path fill-rule="evenodd" clip-rule="evenodd" d="M13 25.4999C19.9036 25.4999 25.5 19.9035 25.5 12.9999C25.5 6.09636 19.9036 0.499924 13 0.499924C6.09644 0.499924 0.5 6.09636 0.5 12.9999C0.5 19.9035 6.09644 25.4999 13 25.4999ZM15.0752 8.46243C15.4061 8.46243 15.9323 8.52063 16.3219 8.59855L16.6721 6.39763C15.9126 6.2418 15.3282 6.12492 14.5298 6.12492C12.2317 6.12492 11.3165 7.21576 11.3165 9.16322V10.585H9.875V12.8835H11.3165V19.8749H14.121V12.8835H16.1656L16.3609 10.585H14.121V9.47534C14.121 8.85201 14.1792 8.46243 15.0752 8.46243Z" fill="#096FFA"/>
</svg>
