<svg width="26" height="26" viewBox="0 0 26 26" fill="none" xmlns="http://www.w3.org/2000/svg">
<path fill-rule="evenodd" clip-rule="evenodd" d="M13 25.5C19.9036 25.5 25.5 19.9036 25.5 13C25.5 6.09644 19.9036 0.5 13 0.5C6.09644 0.5 0.5 6.09644 0.5 13C0.5 19.9036 6.09644 25.5 13 25.5ZM15.0752 8.4625C15.4061 8.4625 15.9323 8.52071 16.3219 8.59863L16.6721 6.39771C15.9126 6.24188 15.3282 6.125 14.5298 6.125C12.2317 6.125 11.3165 7.21583 11.3165 9.16329V10.585H9.875V12.8836H11.3165V19.875H14.121V12.8836H16.1656L16.3609 10.585H14.121V9.47542C14.121 8.85208 14.1792 8.4625 15.0752 8.4625Z" fill="white"/>
</svg>
