<svg width="26" height="26" viewBox="0 0 26 26" fill="none" xmlns="http://www.w3.org/2000/svg">
<path fill-rule="evenodd" clip-rule="evenodd" d="M13 25.4999C19.9036 25.4999 25.5 19.9034 25.5 12.9999C25.5 6.09632 19.9036 0.499878 13 0.499878C6.09644 0.499878 0.5 6.09632 0.5 12.9999C0.5 19.9034 6.09644 25.4999 13 25.4999ZM16.0307 6.89509C15.2398 6.85901 15.0026 6.85136 13 6.85136C10.9974 6.85136 10.7602 6.85901 9.96937 6.89509C9.23813 6.92843 8.84101 7.05062 8.57673 7.15333C8.22665 7.28938 7.97681 7.4519 7.71437 7.71436C7.45191 7.9768 7.28939 8.22664 7.15333 8.57672C7.05062 8.841 6.92844 9.23811 6.8951 9.96935C6.85901 10.7602 6.85136 10.9974 6.85136 13C6.85136 15.0026 6.85901 15.2398 6.8951 16.0306C6.92844 16.7619 7.05062 17.159 7.15333 17.4233C7.28939 17.7733 7.45194 18.0232 7.71437 18.2856C7.97681 18.5481 8.22665 18.7106 8.57673 18.8466C8.84101 18.9494 9.23813 19.0715 9.96937 19.1049C10.7601 19.141 10.9973 19.1486 13 19.1486C15.0027 19.1486 15.2399 19.141 16.0307 19.1049C16.7619 19.0715 17.159 18.9494 17.4233 18.8466C17.7734 18.7106 18.0232 18.5481 18.2857 18.2856C18.5481 18.0232 18.7106 17.7733 18.8467 17.4233C18.9494 17.159 19.0716 16.7619 19.1049 16.0306C19.141 15.2398 19.1487 15.0026 19.1487 13C19.1487 10.9974 19.141 10.7602 19.1049 9.96935C19.0716 9.23811 18.9494 8.841 18.8467 8.57672C18.7106 8.22664 18.5481 7.9768 18.2857 7.71433C18.0232 7.4519 17.7734 7.28938 17.4233 7.15333C17.159 7.05062 16.7619 6.92843 16.0307 6.89509ZM9.90777 5.54515C10.7077 5.50865 10.9631 5.50001 13 5.50001C15.0369 5.50001 15.2923 5.50865 16.0923 5.54515C16.8905 5.58156 17.4357 5.70835 17.9128 5.89374C18.406 6.0854 18.8242 6.34185 19.2412 6.7588C19.6582 7.17577 19.9146 7.59403 20.1063 8.08722C20.2917 8.56427 20.4185 9.10947 20.4549 9.90776C20.4914 10.7077 20.5 10.9631 20.5 13C20.5 15.0369 20.4914 15.2923 20.4549 16.0922C20.4185 16.8905 20.2917 17.4357 20.1063 17.9128C19.9146 18.4059 19.6582 18.8242 19.2412 19.2412C18.8242 19.6581 18.406 19.9146 17.9128 20.1062C17.4357 20.2916 16.8905 20.4184 16.0923 20.4548C15.2923 20.4913 15.0369 20.5 13 20.5C10.9631 20.5 10.7077 20.4913 9.90777 20.4548C9.10948 20.4184 8.56428 20.2916 8.08723 20.1062C7.59404 19.9146 7.17578 19.6581 6.7588 19.2412C6.34186 18.8242 6.08541 18.4059 5.89377 17.9128C5.70835 17.4357 5.58156 16.8905 5.54515 16.0922C5.50865 15.2923 5.50001 15.0369 5.50001 13C5.50001 10.9631 5.50865 10.7077 5.54515 9.90776C5.58156 9.10947 5.70835 8.56427 5.89377 8.08722C6.08541 7.59403 6.34186 7.17577 6.7588 6.7588C7.17578 6.34185 7.59404 6.0854 8.08723 5.89374C8.56428 5.70835 9.10948 5.58156 9.90777 5.54515ZM13.0035 9.15208C10.8764 9.15208 9.15212 10.8764 9.15212 13.0034C9.15212 15.1305 10.8764 16.8548 13.0035 16.8548C15.1305 16.8548 16.8548 15.1305 16.8548 13.0034C16.8548 10.8764 15.1305 9.15208 13.0035 9.15208ZM13.0035 15.5034C11.6228 15.5034 10.5035 14.3841 10.5035 13.0034C10.5035 11.6227 11.6228 10.5034 13.0035 10.5034C14.3842 10.5034 15.5035 11.6227 15.5035 13.0034C15.5035 14.3841 14.3842 15.5034 13.0035 15.5034ZM17.0067 9.89762C17.5038 9.89762 17.9067 9.49466 17.9067 8.99763C17.9067 8.50057 17.5038 8.09761 17.0067 8.09761C16.5097 8.09761 16.1067 8.50057 16.1067 8.99763C16.1067 9.49466 16.5097 9.89762 17.0067 9.89762Z" fill="#096FFA"/>
</svg>
