<svg width="26" height="26" viewBox="0 0 26 26" fill="none" xmlns="http://www.w3.org/2000/svg">
<path fill-rule="evenodd" clip-rule="evenodd" d="M13 25.5C19.9036 25.5 25.5 19.9036 25.5 13C25.5 6.09644 19.9036 0.5 13 0.5C6.09644 0.5 0.5 6.09644 0.5 13C0.5 19.9036 6.09644 25.5 13 25.5ZM16.0307 6.89521C15.2398 6.85913 15.0026 6.85148 13 6.85148C10.9974 6.85148 10.7602 6.85913 9.96937 6.89521C9.23813 6.92856 8.84101 7.05074 8.57673 7.15345C8.22665 7.2895 7.97681 7.45202 7.71437 7.71449C7.45191 7.97692 7.28939 8.22676 7.15333 8.57684C7.05062 8.84112 6.92844 9.23824 6.8951 9.96948C6.85901 10.7603 6.85136 10.9975 6.85136 13.0001C6.85136 15.0027 6.85901 15.2399 6.8951 16.0307C6.92844 16.762 7.05062 17.1591 7.15333 17.4234C7.28939 17.7735 7.45194 18.0233 7.71437 18.2857C7.97681 18.5482 8.22665 18.7107 8.57673 18.8468C8.84101 18.9495 9.23813 19.0717 9.96937 19.105C10.7601 19.1411 10.9973 19.1487 13 19.1487C15.0027 19.1487 15.2399 19.1411 16.0307 19.105C16.7619 19.0717 17.159 18.9495 17.4233 18.8468C17.7734 18.7107 18.0232 18.5482 18.2857 18.2857C18.5481 18.0233 18.7106 17.7735 18.8467 17.4234C18.9494 17.1591 19.0716 16.762 19.1049 16.0307C19.141 15.2399 19.1487 15.0027 19.1487 13.0001C19.1487 10.9975 19.141 10.7603 19.1049 9.96948C19.0716 9.23824 18.9494 8.84112 18.8467 8.57684C18.7106 8.22676 18.5481 7.97692 18.2857 7.71446C18.0232 7.45202 17.7734 7.2895 17.4233 7.15345C17.159 7.05074 16.7619 6.92856 16.0307 6.89521ZM9.90777 5.54527C10.7077 5.50877 10.9631 5.50013 13 5.50013C15.0369 5.50013 15.2923 5.50877 16.0923 5.54527C16.8905 5.58168 17.4357 5.70847 17.9128 5.89386C18.406 6.08553 18.8242 6.34198 19.2412 6.75892C19.6582 7.1759 19.9146 7.59415 20.1063 8.08734C20.2917 8.56439 20.4185 9.10959 20.4549 9.90788C20.4914 10.7078 20.5 10.9632 20.5 13.0001C20.5 15.037 20.4914 15.2924 20.4549 16.0923C20.4185 16.8906 20.2917 17.4358 20.1063 17.9129C19.9146 18.4061 19.6582 18.8243 19.2412 19.2413C18.8242 19.6582 18.406 19.9147 17.9128 20.1063C17.4357 20.2917 16.8905 20.4185 16.0923 20.455C15.2923 20.4914 15.0369 20.5001 13 20.5001C10.9631 20.5001 10.7077 20.4914 9.90777 20.455C9.10948 20.4185 8.56428 20.2917 8.08723 20.1063C7.59404 19.9147 7.17578 19.6582 6.7588 19.2413C6.34186 18.8243 6.08541 18.4061 5.89377 17.9129C5.70835 17.4358 5.58156 16.8906 5.54515 16.0923C5.50865 15.2924 5.50001 15.037 5.50001 13.0001C5.50001 10.9632 5.50865 10.7078 5.54515 9.90788C5.58156 9.10959 5.70835 8.56439 5.89377 8.08734C6.08541 7.59415 6.34186 7.1759 6.7588 6.75892C7.17578 6.34198 7.59404 6.08553 8.08723 5.89386C8.56428 5.70847 9.10948 5.58168 9.90777 5.54527ZM13.0035 9.1522C10.8764 9.1522 9.15212 10.8765 9.15212 13.0035C9.15212 15.1306 10.8764 16.8549 13.0035 16.8549C15.1305 16.8549 16.8548 15.1306 16.8548 13.0035C16.8548 10.8765 15.1305 9.1522 13.0035 9.1522ZM13.0035 15.5035C11.6228 15.5035 10.5035 14.3843 10.5035 13.0035C10.5035 11.6228 11.6228 10.5035 13.0035 10.5035C14.3842 10.5035 15.5035 11.6228 15.5035 13.0035C15.5035 14.3843 14.3842 15.5035 13.0035 15.5035ZM17.0067 9.89774C17.5038 9.89774 17.9067 9.49478 17.9067 8.99775C17.9067 8.50069 17.5038 8.09774 17.0067 8.09774C16.5097 8.09774 16.1067 8.50069 16.1067 8.99775C16.1067 9.49478 16.5097 9.89774 17.0067 9.89774Z" fill="white"/>
</svg>
