<svg width="26" height="26" viewBox="0 0 26 26" fill="none" xmlns="http://www.w3.org/2000/svg">
<path fill-rule="evenodd" clip-rule="evenodd" d="M25.5 12.9999C25.5 19.9034 19.9036 25.4999 13 25.4999C6.09644 25.4999 0.5 19.9034 0.5 12.9999C0.5 6.09632 6.09644 0.499878 13 0.499878C19.9036 0.499878 25.5 6.09632 25.5 12.9999ZM9.73422 6.92743C9.73422 7.70561 9.1417 8.33538 8.2151 8.33538C7.3246 8.33538 6.73208 7.70561 6.75041 6.92743C6.73208 6.11143 7.32458 5.5 8.23285 5.5C9.14168 5.5 9.71645 6.11143 9.73422 6.92743ZM6.82491 18.5113V9.44763H9.64195V18.5113H6.82491ZM11.8253 9.44898C11.8626 10.2461 11.8998 11.2099 11.8998 12.3405H11.901V18.5133H14.718V13.286C14.718 13.0259 14.7547 12.7669 14.8292 12.5812C15.0143 12.0626 15.4773 11.5251 16.2561 11.5251C17.2755 11.5251 17.6829 12.3216 17.6829 13.49V18.5133H20.5V13.137C20.5 10.469 19.1098 9.24555 17.2566 9.24555C15.7552 9.24555 14.8286 10.116 14.4579 10.6908H14.4023L14.2722 9.44898H11.8253Z" fill="#096FFA"/>
</svg>
