<svg width="26" height="26" viewBox="0 0 26 26" fill="none" xmlns="http://www.w3.org/2000/svg">
<path fill-rule="evenodd" clip-rule="evenodd" d="M25.5 13C25.5 19.9036 19.9036 25.5 13 25.5C6.09644 25.5 0.5 19.9036 0.5 13C0.5 6.09644 6.09644 0.5 13 0.5C19.9036 0.5 25.5 6.09644 25.5 13ZM9.73422 6.92755C9.73422 7.70573 9.1417 8.3355 8.2151 8.3355C7.3246 8.3355 6.73208 7.70573 6.75041 6.92755C6.73208 6.11155 7.32458 5.50012 8.23285 5.50012C9.14168 5.50012 9.71645 6.11155 9.73422 6.92755ZM6.82491 18.5115V9.44776H9.64195V18.5115H6.82491ZM11.8253 9.4491C11.8626 10.2462 11.8998 11.21 11.8998 12.3406H11.901V18.5134H14.718V13.2861C14.718 13.026 14.7547 12.767 14.8292 12.5813C15.0143 12.0627 15.4773 11.5252 16.2561 11.5252C17.2755 11.5252 17.6829 12.3217 17.6829 13.4901V18.5134H20.5V13.1372C20.5 10.4691 19.1098 9.24568 17.2566 9.24568C15.7552 9.24568 14.8286 10.1161 14.4579 10.6909H14.4023L14.2722 9.4491H11.8253Z" fill="white"/>
</svg>
