<svg width="26" height="26" viewBox="0 0 26 26" fill="none" xmlns="http://www.w3.org/2000/svg">
<path fill-rule="evenodd" clip-rule="evenodd" d="M13 25.5C19.9036 25.5 25.5 19.9036 25.5 13C25.5 6.09644 19.9036 0.5 13 0.5C6.09644 0.5 0.5 6.09644 0.5 13C0.5 19.9036 6.09644 25.5 13 25.5ZM18.7326 8.67761C19.3551 8.60312 19.9485 8.43813 20.5 8.19315C20.0875 8.81011 19.5656 9.35207 18.9636 9.78704C18.9701 9.91854 18.9726 10.0515 18.9726 10.185C18.9726 14.2512 15.8773 18.9404 10.2172 18.9404C8.4793 18.9404 6.86191 18.4305 5.5 17.5575C5.74048 17.5865 5.98547 17.601 6.23445 17.601C7.67635 17.601 9.00327 17.1086 10.0562 16.2836C8.70979 16.2586 7.57286 15.3687 7.18139 14.1463C7.36937 14.1822 7.56236 14.2018 7.76085 14.2018C8.04133 14.2018 8.31331 14.1638 8.57129 14.0938C7.16439 13.8103 6.10296 12.5669 6.10296 11.0755V11.037C6.51843 11.2674 6.9924 11.4059 7.49737 11.4219C6.67092 10.87 6.12846 9.92804 6.12846 8.86061C6.12846 8.29665 6.27995 7.76818 6.54493 7.31371C8.06283 9.17558 10.3302 10.401 12.888 10.529C12.8355 10.3035 12.808 10.0685 12.808 9.82754C12.808 8.12815 14.1859 6.75024 15.8853 6.75024C16.7697 6.75024 17.5702 7.12422 18.1317 7.72218C18.8321 7.58369 19.4916 7.3282 20.0855 6.97523C19.856 7.69368 19.3681 8.29664 18.7326 8.67761Z" fill="white"/>
</svg>
