<svg width="26" height="26" viewBox="0 0 26 26" fill="none" xmlns="http://www.w3.org/2000/svg">
<path fill-rule="evenodd" clip-rule="evenodd" d="M13 25.4999C19.9036 25.4999 25.5 19.9034 25.5 12.9999C25.5 6.09632 19.9036 0.499878 13 0.499878C6.09644 0.499878 0.5 6.09632 0.5 12.9999C0.5 19.9034 6.09644 25.4999 13 25.4999ZM18.7326 8.67749C19.3551 8.603 19.9485 8.43801 20.5 8.19303C20.0875 8.80999 19.5656 9.35195 18.9636 9.78692C18.9701 9.91841 18.9726 10.0514 18.9726 10.1849C18.9726 14.2511 15.8773 18.9403 10.2172 18.9403C8.4793 18.9403 6.86191 18.4303 5.5 17.5574C5.74048 17.5864 5.98547 17.6009 6.23445 17.6009C7.67635 17.6009 9.00327 17.1084 10.0562 16.2835C8.70979 16.2585 7.57286 15.3685 7.18139 14.1461C7.36937 14.1821 7.56236 14.2016 7.76085 14.2016C8.04133 14.2016 8.31331 14.1636 8.57129 14.0936C7.16439 13.8102 6.10296 12.5667 6.10296 11.0753V11.0368C6.51843 11.2673 6.9924 11.4058 7.49737 11.4218C6.67092 10.8699 6.12846 9.92791 6.12846 8.86049C6.12846 8.29652 6.27995 7.76805 6.54493 7.31358C8.06283 9.17546 10.3302 10.4009 12.888 10.5289C12.8355 10.3034 12.808 10.0684 12.808 9.82742C12.808 8.12803 14.1859 6.75012 15.8853 6.75012C16.7697 6.75012 17.5702 7.1241 18.1317 7.72206C18.8321 7.58357 19.4916 7.32808 20.0855 6.97511C19.856 7.69356 19.3681 8.29652 18.7326 8.67749Z" fill="#096FFA"/>
</svg>
