<svg width="40" height="40" viewBox="0 0 40 40" fill="none" xmlns="http://www.w3.org/2000/svg">
<path d="M11.8 18.75C11.9973 17.419 12.5244 16.1585 13.3333 15.0833L7.38331 9.15C5.02981 11.8273 3.60863 15.196 3.33331 18.75H11.8ZM15.0833 13.3333C16.1602 12.5304 17.4205 12.009 18.75 11.8167V3.33333C15.196 3.60866 11.8273 5.02983 9.14998 7.38333L15.0833 13.3333ZM21.25 3.33333V11.6667C22.6228 11.8897 23.9146 12.4638 25 13.3333L30.9333 7.4C28.2359 5.02383 24.8351 3.5956 21.25 3.33333V3.33333ZM13.3333 25C12.5304 23.9231 12.009 22.6628 11.8166 21.3333H3.33331C3.58988 24.8794 4.9873 28.2473 7.31665 30.9333L13.3333 25ZM18.75 28.2C17.419 28.0027 16.1585 27.4756 15.0833 26.6667L9.14998 32.6167C11.8273 34.9702 15.196 36.3913 18.75 36.6667V28.2ZM26.6666 15.0833C27.4696 16.1602 27.9909 17.4206 28.1833 18.75H36.5166C36.2601 15.2039 34.8627 11.8361 32.5333 9.15L26.6666 15.0833ZM25 26.6667C23.9231 27.4696 22.6628 27.991 21.3333 28.1833V36.5167C24.8794 36.2601 28.2473 34.8627 30.9333 32.5333L25 26.6667ZM28.2 21.25C28.0162 22.6101 27.4884 23.9008 26.6666 25L32.6 30.9333C34.9761 28.236 36.4044 24.8351 36.6666 21.25H28.2Z" fill="white"/>
</svg>
