<svg width="40" height="40" viewBox="0 0 40 40" fill="none" xmlns="http://www.w3.org/2000/svg">
<path d="M20.215 5.5175C21.1527 4.58014 22.4242 4.05357 23.75 4.05357C25.0758 4.05357 26.3474 4.58014 27.285 5.5175L36.9825 15.215C37.9199 16.1526 38.4464 17.4242 38.4464 18.75C38.4464 20.0758 37.9199 21.3474 36.9825 22.285L23.2325 36.035C22.2951 36.9727 21.0235 37.4997 19.6975 37.5H12.8C11.474 37.4997 10.2025 36.9727 9.26502 36.035L3.01502 29.785C2.07766 28.8474 1.55109 27.5758 1.55109 26.25C1.55109 24.9242 2.07766 23.6526 3.01502 22.715L20.2125 5.5175H20.215ZM25.5175 7.285C25.0487 6.81632 24.4129 6.55303 23.75 6.55303C23.0871 6.55303 22.4513 6.81632 21.9825 7.285L10.4 18.8675L23.6325 32.1L35.215 20.5175C35.6837 20.0487 35.947 19.4129 35.947 18.75C35.947 18.0871 35.6837 17.4513 35.215 16.9825L25.5175 7.285V7.285ZM21.865 33.8675L8.63252 20.635L4.78502 24.4825C4.31634 24.9513 4.05305 25.5871 4.05305 26.25C4.05305 26.9129 4.31634 27.5487 4.78502 28.0175L11.035 34.2675C11.5038 34.7364 12.1395 34.9999 12.8025 35H19.7C20.363 34.9999 20.9988 34.7364 21.4675 34.2675L21.8675 33.8675H21.865Z" fill="#1D1D1D"/>
</svg>
